<?xml version="1.0" standalone="no"?>
<!DOCTYPE svg PUBLIC "-//W3C//DTD SVG 20010904//EN"
 "http://www.w3.org/TR/2001/REC-SVG-20010904/DTD/svg10.dtd">
<svg version="1.0" xmlns="http://www.w3.org/2000/svg"
 width="740.000000pt" height="99.000000pt" viewBox="0 0 740.000000 99.000000"
 preserveAspectRatio="xMidYMid meet">
<metadata>
Created by potrace 1.10, written by Peter Selinger 2001-2011
</metadata>
<g transform="translate(0.000000,99.000000) scale(0.100000,-0.100000)"
fill="#ffffff" stroke="none">
<path d="M1400 745 c0 -122 2 -145 15 -145 13 0 15 23 15 145 0 122 -2 145
-15 145 -13 0 -15 -23 -15 -145z"/>
<path d="M2620 879 c-41 -16 -60 -40 -60 -74 0 -44 34 -73 95 -82 76 -10 103
-53 57 -91 -21 -16 -75 -15 -118 3 -34 14 -35 14 -32 -7 6 -45 138 -50 184 -7
27 25 32 74 11 103 -7 9 -43 25 -82 34 -63 15 -70 20 -73 44 -2 20 4 31 23 44
27 18 58 15 118 -11 13 -5 17 -2 17 13 0 34 -86 52 -140 31z"/>
<path d="M3570 745 c0 -122 2 -145 15 -145 13 0 15 23 15 145 0 122 -2 145
-15 145 -13 0 -15 -23 -15 -145z"/>
<path d="M0 865 c0 -11 12 -15 50 -15 l50 0 0 -125 c0 -118 1 -125 20 -125 19
0 20 7 20 125 l0 125 50 0 c38 0 50 4 50 15 0 13 -20 15 -120 15 -100 0 -120
-2 -120 -15z"/>
<path d="M860 859 c0 -14 5 -19 17 -17 26 5 29 38 4 38 -15 0 -21 -6 -21 -21z"/>
<path d="M1634 863 c3 -10 19 -73 37 -140 28 -109 35 -123 54 -123 18 0 24 12
44 98 13 53 27 103 31 110 3 8 16 -27 29 -80 31 -131 30 -128 54 -128 20 0 26
14 58 140 34 129 35 140 18 140 -19 0 -26 -17 -55 -148 -9 -40 -19 -70 -23
-67 -3 4 -17 52 -31 108 -21 84 -30 103 -46 105 -17 2 -23 -9 -43 -95 -13 -54
-27 -104 -31 -112 -4 -8 -18 32 -35 98 -23 94 -30 111 -47 111 -14 0 -18 -5
-14 -17z"/>
<path d="M2832 863 c5 -26 38 -29 38 -4 0 15 -6 21 -21 21 -14 0 -19 -5 -17
-17z"/>
<path d="M700 840 c0 -16 -4 -30 -10 -30 -5 0 -10 -7 -10 -15 0 -8 5 -15 10
-15 6 0 10 -26 10 -59 0 -62 13 -110 33 -123 22 -14 77 -9 77 7 0 9 -9 15 -23
15 -37 0 -47 19 -47 92 l0 68 35 0 c24 0 35 5 35 15 0 10 -11 15 -35 15 -32 0
-35 2 -35 30 0 23 -4 30 -20 30 -16 0 -20 -7 -20 -30z"/>
<path d="M3910 840 c0 -16 -4 -30 -10 -30 -5 0 -10 -7 -10 -15 0 -8 5 -15 10
-15 6 0 10 -33 10 -80 0 -73 2 -81 24 -95 28 -18 77 -17 84 3 2 8 -7 12 -27
12 -40 0 -53 25 -49 98 l3 57 38 3 c53 5 51 32 -3 32 -38 0 -40 2 -40 30 0 20
-5 30 -15 30 -10 0 -15 -10 -15 -30z"/>
<path d="M280 792 c0 -16 7 -18 54 -14 43 3 54 1 60 -13 10 -26 -2 -35 -43
-35 -53 0 -91 -31 -91 -75 0 -45 35 -70 82 -61 18 4 45 7 61 7 l27 0 0 88 c0
109 -10 121 -93 121 -49 0 -57 -3 -57 -18z m120 -122 c0 -24 -6 -33 -26 -40
-39 -15 -62 -12 -74 11 -17 31 12 59 62 59 36 0 38 -2 38 -30z"/>
<path d="M518 780 c-28 -29 -30 -35 -26 -86 6 -64 27 -92 79 -100 42 -7 89 10
89 32 0 12 -5 14 -17 9 -80 -35 -121 -1 -115 92 4 46 64 69 113 43 16 -9 19
-7 19 9 0 23 -19 31 -72 31 -31 0 -46 -7 -70 -30z"/>
<path d="M860 705 c0 -87 3 -105 15 -105 12 0 15 18 15 105 0 87 -3 105 -15
105 -12 0 -15 -18 -15 -105z"/>
<path d="M985 787 c-52 -44 -42 -152 16 -182 49 -26 119 -16 119 17 0 15 -4
18 -17 13 -70 -30 -113 -4 -113 68 0 67 52 98 111 67 16 -9 19 -7 19 9 0 38
-93 44 -135 8z"/>
<path d="M1177 803 c-20 -19 -3 -28 51 -28 50 0 57 -2 57 -20 0 -16 -9 -21
-50 -27 -81 -11 -111 -70 -61 -117 20 -19 31 -22 58 -17 18 4 48 7 66 7 l32
-1 0 85 c0 107 -13 125 -93 125 -30 0 -57 -3 -60 -7z m113 -133 c0 -22 -6 -33
-24 -41 -37 -17 -76 -4 -76 26 0 29 23 44 68 45 29 0 32 -3 32 -30z"/>
<path d="M2037 803 c-4 -3 -7 -12 -7 -19 0 -9 14 -11 53 -7 40 4 56 2 66 -10
18 -23 5 -37 -35 -37 -48 0 -94 -25 -95 -53 -4 -62 26 -93 81 -82 19 4 47 7
63 7 l27 -1 0 88 c0 108 -10 121 -92 121 -30 0 -58 -3 -61 -7z m123 -127 c0
-43 -69 -73 -98 -44 -33 33 -2 67 61 68 33 0 37 -3 37 -24z"/>
<path d="M2260 705 c0 -98 1 -105 20 -105 18 0 20 7 20 75 0 81 10 95 64 95
19 0 26 5 26 20 0 24 -23 26 -62 6 -24 -13 -28 -13 -28 0 0 8 -9 14 -20 14
-19 0 -20 -7 -20 -105z"/>
<path d="M2837 803 c-4 -3 -7 -51 -7 -105 0 -91 1 -98 20 -98 19 0 20 7 20
105 0 81 -3 105 -13 105 -8 0 -17 -3 -20 -7z"/>
<path d="M2940 705 c0 -98 1 -105 20 -105 18 0 20 7 20 78 0 87 8 102 56 102
40 0 44 -11 44 -106 0 -59 3 -74 15 -74 12 0 15 16 15 80 0 70 2 81 20 90 12
6 33 10 48 8 31 -4 40 -26 41 -115 1 -49 4 -63 16 -63 22 0 21 156 -1 188 -18
26 -73 30 -108 7 -21 -14 -24 -14 -36 0 -14 17 -62 20 -91 5 -13 -7 -19 -7
-19 0 0 5 -9 10 -20 10 -19 0 -20 -7 -20 -105z"/>
<path d="M3320 720 c0 -78 3 -93 21 -111 17 -17 28 -20 57 -15 21 4 52 7 70 6
l32 0 0 105 c0 98 -1 105 -20 105 -18 0 -20 -7 -20 -83 0 -80 -1 -84 -25 -95
-65 -30 -85 -5 -85 109 0 55 -3 69 -15 69 -12 0 -15 -17 -15 -90z"/>
<path d="M3687 803 c-20 -19 -3 -28 51 -28 50 0 57 -2 57 -20 0 -16 -9 -21
-50 -27 -79 -11 -106 -59 -64 -113 19 -23 27 -26 58 -20 20 3 51 6 69 6 l32 0
0 85 c0 106 -13 124 -93 124 -30 0 -57 -3 -60 -7z m123 -127 c0 -43 -69 -73
-98 -44 -33 33 -2 67 61 68 33 0 37 -3 37 -24z"/>
<path d="M4092 803 c-22 -9 -42 -60 -42 -108 0 -38 5 -52 29 -76 64 -64 161
-19 161 76 0 49 -13 82 -39 102 -16 12 -84 16 -109 6z m98 -38 c21 -25 18 -99
-4 -124 -35 -38 -88 -20 -102 35 -7 27 2 72 18 91 15 18 73 16 88 -2z"/>
<path d="M4300 705 c0 -87 3 -105 15 -105 12 0 15 15 15 71 0 81 12 98 68 99
25 0 32 4 32 20 0 25 -29 26 -70 5 -27 -14 -30 -14 -30 0 0 8 -7 15 -15 15
-12 0 -15 -18 -15 -105z"/>
</g>
</svg>
